{"title":"Skinned Alive 2008 DVDRip Xvid AC3 LKRG","uid":10252845,"size":837150541,"categoryP":"video","categoryS":"movies","magnet":"?xt=urn:btih:cf5552b1e36d9bb2e312eaffc14ebf9f0a07f754&amp;dn=Skinned+Alive+2008+DVDRip+Xvid+AC3+LKRG&amp;tr=udp%3A%2F%2Ftracker.openbittorrent.com%3A80&amp;tr=udp%3A%2F%2Fopen.demonii.com%3A1337&amp;tr=udp%3A%2F%2Ftracker.coppersurfer.tk%3A6969&amp;tr=udp%3A%2F%2Fexodus.desync.com%3A6969","seeders":0,"leechers":0,"uploader":".BONE.","files":2,"time":1401375498,"description":"PLOT\n\nIn the heart of New York City, men are dying in very violent ways. They are being torn up and ripped apart...and\neaten. The only connection is that they all die after hiring a prostitute. ...\n\nRuntime ..........: 1h 29mn\nFile Size ........: 798 MB\nResolution .......: 704 x 368 &lt;a href=&quot;\nhttp://www.imdb.com/title/tt0831377/&quot; rel=&quot;nofollow&quot; target=&quot;_NEW&quot;&gt;\nhttp://www.imdb.com/title/tt0831377/&lt;/a&gt;\nGenre ............: Horror\nLanguage .........: English\nSubtitles ........: None\nComplete name : Skinned Alive 2008 DVDRip Xvid AC3 LKRGSkinnedA_LKRG.avi\nFormat : AVI\nFormat/Info : Audio Video Interleave\nFile size : 798 MiB\nDuration : 1h 29mn\nOverall bit rate : 1 242 Kbps\nWriting application : VirtualDubMod 1.5.10.2 (build 2540/release)\nWriting library : VirtualDubMod build 2540/release\nVideo\nID : 0\nFormat : MPEG-4 Visual\nFormat profile : Advanced Simple@L5\nFormat settings, BVOP : 2\nFormat settings, QPel : No\nFormat settings, GMC : No warppoints\nFormat settings, Matrix : Default (H.263)\nMuxing mode : Packed bitstream\nCodec ID : XVID\nCodec ID/Hint : XviD\nDuration : 1h 29mn\nBit rate : 1 008 Kbps\nWidth : 704 pixels\nHeight : 368 pixels\nDisplay aspect ratio : 1.739\nFrame rate : 23.976 fps\nColor space : YUV\nChroma subsampling : 4:2:0\nBit depth : 8 bits\nScan type : Progressive\nCompression mode : Lossy\nBits/(Pixel*Frame) : 0.162\nStream size : 648 MiB (81%)\nWriting library : XviD 1.2.1 (UTC 2008-12-04)\nAudio\nID : 1\nFormat : AC-3\nFormat/Info : Audio Coding 3\nMode extension : CM (complete main)\nFormat settings, Endianness : Big\nCodec ID : 2000\nDuration : 1h 29mn\nBit rate mode : Constant\nBit rate : 224 Kbps\nChannel(s) : 2 channels\nChannel positions : Front: L R\nSampling rate : 48.0 KHz\nBit depth : 16 bits\nCompression mode : Lossy\nStream size : 144 MiB (18%)\nAlignment : Split accross interleaves\nInterleave, duration : 42 ms (1.00 video frame)\nInterleave, preload duration : 500 ms\n","torrent":{"xt":"urn:btih:cf5552b1e36d9bb2e312eaffc14ebf9f0a07f754","amp;dn":"Skinned+Alive+2008+DVDRip+Xvid+AC3+LKRG","amp;tr":["udp%3A%2F%2Ftracker.openbittorrent.com%3A80","udp%3A%2F%2Fopen.demonii.com%3A1337","udp%3A%2F%2Ftracker.coppersurfer.tk%3A6969","udp%3A%2F%2Fexodus.desync.com%3A6969"],"infoHash":"cf5552b1e36d9bb2e312eaffc14ebf9f0a07f754","infoHashBuffer":{"type":"Buffer","data":[207,85,82,177,227,109,155,178,227,18,234,255,193,78,191,159,10,7,247,84]},"announce":[],"urlList":[]}}